<?xml version="1.0" encoding="utf-8"?>
<!-- Generator: Adobe Illustrator 28.2.0, SVG Export Plug-In . SVG Version: 6.00 Build 0)  -->
<svg version="1.1" id="Layer_1" xmlns="http://www.w3.org/2000/svg" xmlns:xlink="http://www.w3.org/1999/xlink" x="0px" y="0px"
	 viewBox="0 0 384 366" style="enable-background:new 0 0 384 366;" xml:space="preserve">
<style type="text/css">
	.st0{fill:none;stroke:#FFFFFF;stroke-width:2;stroke-opacity:0.15;}
	.st1{fill:none;stroke:url(#SVGID_1_);stroke-width:2;stroke-opacity:0.85;}
</style>
<path vector-effect="non-scaling-stroke" class="st0" d="M32,1h287.5c8.6,0,16.8,3.6,22.6,9.8l32.5,34.8C380,51.4,383,59,383,66.8
	V334c0,17.1-13.9,31-31,31H32c-17.1,0-31-13.9-31-31V32C1,14.9,14.9,1,32,1z"/>
<linearGradient id="SVGID_1_" gradientUnits="userSpaceOnUse" x1="192" y1="368" x2="192" y2="2" gradientTransform="matrix(1 0 0 -1 0 368)">
	<stop  offset="0" style="stop-color:#FFC876"/>
	<stop  offset="0.5628" style="stop-color:#D633FF;stop-opacity:0"/>
</linearGradient>
<path vector-effect="non-scaling-stroke" class="st1" d="M32,1h287.5c8.6,0,16.8,3.6,22.6,9.8l32.5,34.8C380,51.4,383,59,383,66.8
	V334c0,17.1-13.9,31-31,31H32c-17.1,0-31-13.9-31-31V32C1,14.9,14.9,1,32,1z"/>
</svg>
