<?xml version="1.0" encoding="utf-8"?>
<!-- Generator: Adobe Illustrator 28.2.0, SVG Export Plug-In . SVG Version: 6.00 Build 0)  -->
<svg version="1.1" id="Layer_1" xmlns="http://www.w3.org/2000/svg" xmlns:xlink="http://www.w3.org/1999/xlink" x="0px" y="0px"
	 viewBox="0 0 190 40" style="enable-background:new 0 0 190 40;" xml:space="preserve">
<style type="text/css">
	.st0{fill:#6366F1;}
	.st1{fill:#FFFFFF;}
</style>
<path class="st0" d="M16.2,11.5c-0.2,0-0.4-0.1-0.4,0.3c0,0.2-0.2,0.1-0.3,0.1c-0.4-0.1-0.5,0-0.5,0.4l0,0c-0.3-0.1-0.5,0-0.5,0.4
	c-0.1,0-0.2,0-0.3,0c-0.2,0.1,0,0.3-0.2,0.4c-0.1,0-0.3,0-0.4,0c-0.3-0.1-0.5,0-0.4,0.4c-0.2,0-0.5,0-0.5,0.4c0,0.2-0.3,0-0.4,0.1
	c-0.3-0.1-0.5,0-0.5,0.4c-0.1,0-0.2,0-0.3,0c-0.2,0.1,0,0.3-0.2,0.4c-0.1,0-0.2,0-0.3,0c-0.3,0-0.5,0-0.5,0.4c-0.2,0-0.5,0-0.5,0.4
	c0,0.1-0.2,0-0.3,0.1c-0.2,0.1,0,0.3-0.1,0.4c-0.4,0-0.5,0.1-0.4,0.4C9.4,16.8,9.4,17,9.7,17c0.1,0,0.2,0,0.2,0.1
	c0,0.4,0.3,0.3,0.5,0.3c0.1,0,0.2,0,0.3,0c0.1,0.1-0.1,0.3,0.1,0.4c0.1,0,0.2,0,0.3,0c0,0.3,0.1,0.6,0.5,0.4c0.2,0,0.5-0.1,0.4,0.3
	c0,0.2,0.2,0.1,0.4,0.1c0,0.3,0.1,0.5,0.4,0.4c-0.1,0.4,0.2,0.4,0.5,0.4c0.1,0,0.2,0,0.4,0c0.1,0.1-0.1,0.4,0.2,0.4
	c0.1,0,0.4,0,0.3,0.2c0,0.2,0,0.3,0,0.5c0,0.1-0.1,0.1-0.1,0.1c-0.4,0-0.3,0.2-0.3,0.4c0,0.1,0,0.3-0.1,0.4c-0.3-0.1-0.4,0-0.4,0.4
	c0,0.2,0.1,0.3-0.1,0.5c-0.2,0-0.4,0-0.4,0.3c0,0.2,0.2,0.6-0.3,0.6c-0.1,0-0.1,0.3-0.1,0.4c0,0.2,0.1,0.5-0.3,0.4
	c-0.2,0-0.1,0.2-0.1,0.3c-0.1,0.2,0.2,0.6-0.4,0.6c-0.1,0-0.1,0.3-0.1,0.4c0,0.3-0.1,0.4-0.4,0.4c-0.3,0.2-0.1,0.6-0.2,0.8
	c-0.3-0.1-0.3,0.2-0.3,0.4c-0.3,0-0.4,0.1-0.5,0.4c0,0.2,0,0.4-0.1,0.5c-0.3-0.1-0.3,0.2-0.3,0.4c0,0.2,0,0.3,0,0.5
	c0,0.1,0,0.2,0,0.4c-0.1,0.4,0.1,0.4,0.4,0.5C10,30,10.3,30,10.5,30c0,0.3,0,0.5,0.4,0.4c0.3,0,0.6,0,0.8,0c0.1,0,0.3,0,0.4,0
	c0.4,0.1,0.5-0.1,0.4-0.4l0,0c0.2,0,0.5,0.1,0.5-0.3c0,0,0-0.1,0.1-0.1s0.2,0,0.3,0c0.3,0.1,0.5-0.1,0.5-0.4l0,0
	c0.4,0.2,0.4-0.2,0.5-0.4c0.2,0,0.4,0.1,0.3-0.2c0-0.3,0.3-0.1,0.4-0.2c0.3,0.1,0.5,0,0.5-0.4c0.1,0,0.2,0,0.3,0
	c0.2-0.1,0-0.3,0.1-0.4c0.1,0,0.3,0,0.4,0c0.4,0.1,0.5-0.1,0.5-0.4c0.2,0,0.4,0,0.4-0.3s0.3-0.1,0.4-0.1c0.4,0.1,0.5-0.1,0.5-0.4
	c0.1,0,0.2,0,0.3,0c0.2-0.1,0.1-0.3,0.1-0.4c0.1,0,0.2,0,0.3,0c0.4,0.1,0.5-0.1,0.6-0.4c0.2,0,0.4,0,0.4-0.3s0.3-0.1,0.4-0.1
	c0.4,0.1,0.5-0.1,0.5-0.4c0.1,0,0.2,0,0.3,0c0.3,0,0.1-0.3,0.2-0.4c0.1,0,0.2,0,0.3,0c0.4,0.1,0.5-0.1,0.6-0.4c0.2,0,0.4,0,0.4-0.3
	s0.3-0.1,0.4-0.1c0.4,0.1,0.5-0.1,0.5-0.4l0,0c0.1,0,0.2,0,0.3,0c0.2-0.1,0-0.3,0.1-0.4c0.1,0,0.2,0,0.4,0c0.4,0.1,0.4-0.1,0.4-0.4
	l0,0c0.3,0.1,0.5,0,0.4-0.4c0.2,0,0.5,0.1,0.4-0.3c0-0.3-0.3-0.1-0.4-0.2c0-0.3,0-0.5-0.4-0.4c-0.1-0.1,0-0.3-0.1-0.4
	c-0.1,0-0.2,0-0.3,0c0.1-0.4-0.1-0.5-0.5-0.4c-0.2,0-0.4,0-0.4-0.3c0-0.2-0.2-0.1-0.3-0.1c-0.1-0.2-0.1-0.6-0.5-0.4l0,0
	c0-0.3-0.1-0.5-0.5-0.4c0,0,0,0-0.1,0s-0.2,0-0.3,0c0-0.3-0.1-0.5-0.5-0.4c-0.1,0-0.2,0-0.3,0c0-0.1-0.1-0.2-0.1-0.4
	c0-0.2,0-0.3,0-0.5c0-0.1,0.1-0.3,0-0.4c0-0.1,0-0.3,0-0.4c0.3,0,0.5-0.1,0.5-0.5c0-0.1,0-0.3,0-0.4c0.4,0.1,0.4-0.2,0.4-0.4
	c0.1,0,0.2,0,0.4,0c0.3,0,0.6,0,0.8,0c0.4,0,0.8,0,1.2,0c0.2,0,0.3,0,0.5,0c0.3,0,0.5,0,0.5-0.4c0.1,0,0.3,0,0.4,0
	c0.5,0,0.5,0,0.4-0.5c0-0.1,0-0.2,0-0.4c0.4,0.1,0.4-0.2,0.5-0.4c0.1,0,0.2,0,0.4,0c0.1,0,0.3,0,0.4,0c0.4,0,0.9,0,1.3,0
	c0.3,0,0.6,0,0.9,0c0.1,0,0.3,0,0.4,0c0.2,0,0.3,0,0.5,0c0.1,0,0.3,0,0.4,0c0.2,0,0.3,0,0.5,0c0.3,0,0.5,0,0.8,0
	c0.2,0.1,0.5-0.1,0.5,0.4c0,0.2,0.2,0.1,0.3,0.1c0.1,0.1-0.1,0.3,0.1,0.4c0.1,0,0.2,0,0.3,0l0,0c0,0.1,0,0.4,0.1,0.4
	c0.3,0,0.4,0.3,0.5,0.5c0.1,0,0.2,0,0.3,0c0,0.2,0.1,0.3,0.1,0.5c0,0.3,0,0.4,0.3,0.4l0,0c-0.1,0.3,0,0.5,0.4,0.5c0,0.1,0,0.2,0,0.4
	c0,0.2-0.1,0.4,0.1,0.4c0.4,0,0.3,0.3,0.3,0.5c0,0.3,0.1,0.5,0.4,0.4c0,0.1,0,0.2,0,0.4c0,0.2-0.1,0.5,0.3,0.5
	c0.2,0,0.1,0.1,0.1,0.2c0.1,0.2-0.1,0.4,0.1,0.6c0.1,0,0.2,0,0.3,0c0,0.1,0,0.2,0,0.4c-0.1,0.3,0,0.5,0.4,0.5c0,0.1,0,0.2,0,0.4
	c-0.1,0.2-0.1,0.4,0.1,0.4c0.4,0,0.3,0.3,0.3,0.5c0,0.3,0.2,0.4,0.4,0.4c0,0.1,0,0.2,0,0.4c-0.1,0.2-0.2,0.4,0.2,0.5
	c0.1,0,0.1,0.1,0.1,0.2s0,0.2,0.1,0.3c0.3-0.1,0.4,0.1,0.4,0.4c0,0.2-0.1,0.5,0.3,0.4c0.1,0.3-0.1,0.6,0.1,0.8
	c0.3,0,0.4,0.1,0.4,0.4c0,0.2-0.1,0.5,0.3,0.5c0.1,0.3-0.1,0.6,0.1,0.8c0.1,0,0.2,0,0.4,0.1c0,1,0,2,0,3c0,0.1,0.1,0.3-0.1,0.3
	c-0.4,0-0.3,0.2-0.3,0.5c0,0.2,0.1,0.5-0.3,0.4c-0.3,0-0.1,0.3-0.2,0.4c-0.2,0-0.4,0-0.4,0.3c0,0.2-0.2,0.1-0.3,0.1
	c-0.2,0-0.6-0.1-0.5,0.3c0,0.1-0.2,0.1-0.3,0.1c-1,0-2,0-3,0c-0.1-0.3,0-0.6-0.5-0.4c-0.1,0-0.3,0-0.4,0c0.2-0.8,0.4-1,0.2-1.1
	c-0.1,0-0.2,0-0.3,0c0-0.4-0.1-0.5-0.5-0.4c-0.1,0-0.2,0-0.3,0c-0.1-0.1,0.1-0.3-0.2-0.4c-0.1,0-0.2,0-0.3,0c0-0.4-0.2-0.5-0.6-0.4
	c-0.1,0-0.2,0-0.3,0c-0.1-0.1,0.1-0.3-0.1-0.4c-0.1,0-0.2,0-0.3,0c0-0.4-0.1-0.5-0.5-0.4c-0.1,0-0.2,0-0.4,0c0-0.3,0-0.5-0.4-0.4
	c0-0.4-0.2-0.5-0.6-0.4c-0.1,0-0.2,0-0.4,0c0.1-0.4-0.1-0.4-0.4-0.4c-0.2,0-0.3,0-0.5,0c0-0.3,0-0.5-0.4-0.4c-0.1,0-0.3,0-0.4,0
	c-0.3,0-0.6,0-0.8,0c-0.4,0-0.8,0-1.2,0c-0.7,0-1.4,0-2.2,0c-0.6,0-1.1,0-1.7,0c-0.1,0-0.2,0-0.4,0c-0.2,0-0.3,0-0.5,0
	c-0.3-0.1-0.4,0.1-0.4,0.4c-0.2,0-0.3,0-0.5,0c-0.3-0.1-0.5,0-0.4,0.4c-0.1,0.1-0.2,0-0.3,0c-0.3-0.1-0.6,0-0.5,0.4l0,0
	c-0.1,0-0.3,0-0.4,0c-0.2,0.1-0.1,0.2-0.1,0.4c0,0,0,0,0,0.1c-0.1,0-0.2,0-0.3,0c-0.4-0.2-0.5,0.1-0.5,0.4l0,0
	c-0.3-0.1-0.5,0-0.4,0.4c-0.1,0.1-0.2,0-0.3,0c-0.4-0.1-0.6,0-0.5,0.4c-0.2,0-0.5-0.1-0.4,0.3c0,0.1-0.1,0.1-0.1,0.1
	c-0.2,0-0.3,0.1-0.3,0.3c0,0.3-0.3,0.1-0.4,0.1c-0.3-0.1-0.5,0-0.4,0.4c-0.1,0-0.2,0-0.4,0c-0.3-0.1-0.6,0-0.5,0.4
	c-1.1,0-2.1,0-3.2,0c-0.1,0-0.3,0-0.2-0.2c0-0.3-0.1-0.3-0.3-0.3C9.3,32.3,9,32.4,9,32c0-0.1-0.1-0.1-0.1-0.1c-0.2,0-0.3,0-0.3-0.3
	c0-0.1,0-0.1-0.1-0.1c-0.4,0-0.3-0.3-0.3-0.5s0.1-0.4-0.3-0.4c-0.2,0-0.2-0.1-0.2-0.2c0-1,0-1.9,0-2.9c0-0.1,0-0.3,0.1-0.2
	c0.4,0,0.3-0.2,0.3-0.4c0-0.2-0.1-0.5,0.3-0.5c0.2,0,0.1-0.2,0.1-0.4c0-0.2-0.1-0.5,0.3-0.5c0.2,0,0.1-0.3,0.1-0.4
	c0.4,0.1,0.5-0.1,0.4-0.5c0-0.1,0-0.2,0-0.3c0.4,0.1,0.5-0.2,0.4-0.5c0-0.1,0-0.2,0-0.4c0.4,0.1,0.5-0.1,0.4-0.5c0-0.1,0-0.2,0-0.4
	c0.4,0.1,0.5-0.1,0.4-0.5c0-0.1,0-0.2,0-0.4c0.3,0,0.5-0.1,0.4-0.4c0-0.1,0-0.3,0-0.4c0-0.5,0-0.5-0.5-0.5c-0.1,0-0.2,0-0.3,0
	c0-0.3-0.1-0.5-0.5-0.4l0,0c0-0.4-0.1-0.5-0.5-0.4c-0.2,0-0.4,0.1-0.4-0.3c0-0.2-0.2-0.1-0.4-0.1c0-0.3-0.1-0.5-0.5-0.4
	c-0.3,0-0.5-0.1-0.4-0.4c0.1-0.4,0-0.5-0.4-0.5c0-0.9,0-1.8,0-2.7V15c0.7,0,0.7-0.4,1-0.5c0.1,0,0.2,0,0.2-0.1
	C8.1,14,8.4,14.1,8.6,14c0.4,0.1,0.5-0.1,0.5-0.4c0.1,0,0.2,0,0.3,0c0.3-0.1,0-0.3,0.1-0.4c0.1,0,0.3,0,0.4,0
	c0.4,0.1,0.5-0.1,0.5-0.4c0.4,0.1,0.4-0.1,0.4-0.4l0,0c0.3,0.1,0.4-0.1,0.4-0.4c0.2,0,0.3,0,0.5-0.1c0.3,0.1,0.5,0,0.4-0.4l0,0
	c0.4,0.1,0.5-0.1,0.5-0.5c0.1,0,0.2,0,0.4,0c0.4,0.1,0.5,0,0.5-0.4l0,0c0.4,0.1,0.4-0.2,0.5-0.4c0.1,0,0.2,0,0.4,0
	c0.3,0.1,0.4-0.1,0.4-0.4l0,0C14.9,9.9,15,9.7,15,9.4c0.1,0,0.2,0,0.4,0c0.3,0,0.5,0,0.5-0.4c0.2,0,0.4,0.1,0.4-0.3
	c0-0.2,0.2-0.1,0.4-0.1c0.3,0,0.5-0.1,0.5-0.4l0,0c0.4,0.1,0.5-0.1,0.5-0.4c0.1,0,0.2,0,0.4,0c0.3,0,0.4-0.1,0.5-0.4
	C19,7.5,19,7.2,19.1,6.9c0.2,0,0.4,0,0.4-0.3s0.3-0.1,0.4-0.2C20,6.5,20.1,6.3,20.1,6c0.1,0,0.2,0,0.3,0c0.2-0.1,0-0.3,0.1-0.4
	c0.1,0,0.3,0,0.4,0c0.4,0.1,0.4-0.1,0.4-0.4c1,0,2,0,3,0c0.1,0,0.2,0,0.3,0c-0.1,0.4,0.1,0.4,0.5,0.4c0.1,0,0.2,0,0.4,0
	c0,0.2,0,0.5,0.4,0.4C26,6.2,26,6.5,26.4,6.4c0,0.3,0.1,0.5,0.4,0.4c0,0.1,0,0.3,0,0.4c-0.1,0.3,0,0.5,0.4,0.4c0.1,0.7,0,1.4,0,2.1
	c-0.4-0.1-0.4,0.2-0.4,0.5c0,0.1,0,0.3,0,0.4c-0.3-0.1-0.4,0.1-0.3,0.4c0,0.2-0.1,0.3-0.1,0.5c-0.3,0-0.5,0.1-0.4,0.4
	c0,0.1,0,0.3,0,0.4l0,0c-0.4,0-0.5,0.1-0.4,0.5c0,0.1,0,0.2,0,0.4c-0.1,0-0.2,0-0.3,0c-0.2,0,0,0.4-0.2,0.4c-0.4,0-0.3,0.2-0.4,0.5
	c-0.6,0-1.2,0-1.7,0c-0.3,0-0.4-0.1-0.4-0.4c0-0.2,0-0.3,0-0.5c0.3,0.1,0.5-0.1,0.4-0.4c0-0.1-0.1-0.4,0.1-0.4
	c0.4,0,0.3-0.3,0.3-0.5s0-0.4,0.3-0.4c0.2,0,0-0.3,0.1-0.4c0.3,0,0.5-0.1,0.4-0.4c0-0.1,0-0.3,0-0.4c0.1,0,0.2,0,0.3,0
	c0.2-0.1,0.2-0.2,0.1-0.4c0-0.6,0-1.1,0-1.7c0.1-0.3,0-0.5-0.4-0.5c0-0.4-0.1-0.5-0.5-0.4c-0.4,0-0.8,0-1.2,0c-0.1,0-0.3,0-0.4,0
	c-0.3-0.1-0.5,0.1-0.4,0.4l0,0c-0.4-0.1-0.5,0.1-0.5,0.4l0,0c-0.3-0.1-0.5,0-0.4,0.4c-0.1,0-0.2,0-0.4,0c-0.3-0.1-0.6,0-0.5,0.4l0,0
	c-0.3-0.1-0.5,0-0.5,0.4c-0.1,0-0.2,0-0.3,0c-0.3-0.1-0.6,0-0.6,0.4l0,0c-0.3-0.1-0.5,0-0.4,0.4c-0.1,0-0.2,0-0.4,0
	c-0.4-0.1-0.6,0-0.5,0.4l0,0c-0.3-0.1-0.5,0-0.4,0.4c-0.1,0-0.2,0-0.3,0C16.4,11,16.2,11,16.2,11.5z M29,17.5c-0.3,0-0.5,0-0.4,0.4
	c-0.1,0-0.3,0-0.4,0c-0.4-0.1-0.5,0.1-0.4,0.4s-0.3,0.8,0.3,0.9l0.1,0.1c0,0.4,0.2,0.3,0.4,0.3c0.3,0,0.6,0,0.9,0
	c0.3,0.1,0.5-0.1,0.4-0.4c0-0.3,0-0.6,0-0.8c0.1-0.5,0.1-0.5-0.4-0.4l0,0l0,0C29.5,17.4,29.2,17.4,29,17.5z M31.4,22.1
	c0.1,0.3,0.2,0.6,0.6,0.4c0.1,0,0.2,0,0.3,0c0.3,0.1,0.6,0,0.4-0.4c0.3,0,0.5-0.1,0.4-0.5s0.2-0.9-0.1-1.2c-0.3-0.3-0.8-0.1-1.2-0.1
	c-0.2,0-0.5-0.1-0.4,0.3c0,0.1-0.1,0.1-0.1,0.1C31,20.7,31,20.8,31,21s0,0.4,0,0.5C31.1,21.9,31,22.2,31.4,22.1z M29.7,23.4
	c-0.2,0-0.4,0-0.3-0.3c0-0.1-0.1-0.2-0.2-0.2c-0.3,0-0.6,0-0.9,0c-0.1,0-0.2,0.1-0.2,0.2c0,0.3-0.2,0.3-0.3,0.3
	c-0.2,0.2-0.1,0.5-0.1,0.8s0.1,0.5,0.4,0.5c-0.1,0.4,0.1,0.5,0.5,0.4c0.2,0,0.4,0,0.6,0c0.1,0,0.2,0,0.2-0.2c0-0.3,0.2-0.3,0.3-0.3
	c0.2-0.4,0.1-0.7,0.1-1.1C29.9,23.4,29.8,23.4,29.7,23.4z"/>
<path class="st0" d="M17.9,24.3c-0.3,0-0.4-0.1-0.4-0.4c0-0.4,0-0.8,0-1.3c0-0.2,0.1-0.5-0.2-0.5c-0.4,0-0.7,0-1.1,0
	c-0.1,0-0.3,0-0.4,0c-0.1,0-0.3,0-0.4,0c0-0.6,0-1.1,0-1.7c0.1,0,0.2,0,0.4,0c0.1,0,0.3,0,0.4,0c0.3,0,0.6,0,0.8,0
	c0.5,0.1,0.5,0.1,0.4-0.4c0-0.5,0-0.9,0-1.4c0-0.2,0-0.3,0.2-0.3c0.5,0,1,0,1.5,0c-0.1,0.4,0.2,0.4,0.4,0.5c0,0.4,0,0.8,0,1.2
	c0,0.4,0,0.4,0.4,0.4c0.1,0,0.3,0,0.4,0c0.2,0,0.3,0,0.5,0c0.1,0,0.2,0,0.3,0c0.1,0.2,0.1,0.5,0.5,0.5c0,0.1,0,0.3,0,0.4
	c0,0.8,0,0.8-0.8,0.8c-0.3,0-0.6,0-0.9,0c-0.4-0.1-0.5,0.1-0.4,0.4c-0.1,0.4,0,0.8-0.1,1.3c-0.3,0-0.5,0.1-0.4,0.4l0,0
	c-0.2,0-0.3,0-0.5,0c-0.1,0-0.3,0-0.4,0C18.2,24.3,18.1,24.3,17.9,24.3z M18.4,20.9c-0.1,0-0.4-0.1-0.4,0.1s-0.1,0.5,0.1,0.7
	c0.2,0.1,0.5,0.1,0.7,0c0.1,0,0.1-0.7-0.1-0.8C18.6,20.9,18.5,20.9,18.4,20.9z"/>
<path class="st0" d="M23,28.1c0.7,0,1.4,0,2.2,0c0,0.1,0,0.3,0,0.4c-0.7,0-1.4,0-2.1,0C23,28.3,23,28.2,23,28.1z"/>
<path class="st0" d="M40,31.1c0-0.2-0.1-0.5,0.3-0.5c0.2,0,0.1-0.2,0.1-0.3c0-1,0-2,0-3c0.1,0,0.1,0.2,0.1,0.3c0,0.9,0,1.9,0,2.8
	c0,0.2,0,0.4-0.1,0.5C40.4,31.1,40.1,31,40,31.1z"/>
<path class="st0" d="M23,28.1c0,0.1,0,0.3,0,0.4c-0.6,0-1.1,0-1.7,0c0-0.1,0-0.3,0-0.4C21.9,28,22.4,28.1,23,28.1z"/>
<path class="st0" d="M16.2,22.1c0.4,0,0.7,0,1.1,0s0.2,0.3,0.2,0.5c-0.4,0-0.8,0-1.2,0C16.3,22.4,16.4,22.3,16.2,22.1L16.2,22.1z"/>
<path class="st0" d="M13.7,21.2c-0.1-0.2-0.1-0.4,0.3-0.4c0.1,0,0.1,0,0.1-0.1c0-0.2,0-0.3,0-0.5c0-0.3-0.2-0.2-0.3-0.2
	c-0.2-0.1,0-0.3-0.2-0.4c0.3-0.1,0.5,0,0.5,0.4c0,0.3,0,0.6,0,0.9C14.1,21.2,14,21.3,13.7,21.2z"/>
<path class="st0" d="M37.9,22.6c-0.3,0-0.4-0.1-0.4-0.4c0-0.2,0.1-0.5-0.3-0.5c-0.2,0-0.1-0.3-0.1-0.4c0.3,0,0.5,0.1,0.4,0.4
	c0,0.2-0.1,0.4,0.3,0.5C38,22.1,37.9,22.4,37.9,22.6z"/>
<path class="st0" d="M35.7,18.3c-0.3,0.1-0.4-0.1-0.4-0.4c0-0.2,0.1-0.4-0.3-0.5c-0.2,0-0.1-0.3-0.1-0.4c0.3,0,0.4,0.1,0.4,0.4
	c0,0.2,0,0.5,0.3,0.5S35.9,18.2,35.7,18.3z"/>
<path class="st0" d="M23.4,11.9c0,0.2,0.1,0.5-0.3,0.5c-0.2,0-0.1,0.3-0.1,0.4c0,0.3-0.1,0.5-0.4,0.4c-0.1-0.2-0.1-0.4,0.2-0.5
	c0.3-0.1,0.2-0.3,0.2-0.5C23,12,23.2,11.9,23.4,11.9z"/>
<path class="st0" d="M28.6,13.6c-0.4,0-0.9,0-1.3,0c0-0.1,0-0.3,0-0.4c0.4,0,0.9,0,1.3,0C28.6,13.3,28.6,13.5,28.6,13.6z"/>
<path class="st0" d="M24.2,15.3c-0.4,0-0.8,0-1.2,0c0-0.1,0-0.3,0-0.4c0.4,0,0.8,0,1.2,0C24.2,15,24.2,15.2,24.2,15.3z"/>
<path class="st0" d="M25.2,28.5c0-0.1,0-0.3,0-0.4c0.4,0,0.8,0,1.2,0c0,0.1,0,0.3,0,0.4C26,28.5,25.6,28.5,25.2,28.5z"/>
<path class="st0" d="M10.4,17.4c-0.2,0-0.5,0.1-0.5-0.3C9.9,17,9.8,17,9.7,17c-0.4,0-0.3-0.2-0.2-0.4c0.2,0,0.4,0,0.4,0.3
	C9.9,17,10,17,10,17C10.4,16.9,10.3,17.2,10.4,17.4z"/>
<path class="st0" d="M20.1,22.1c0.3-0.1,0.6,0,0.9,0c-0.1,0.5-0.1,0.5-0.9,0.4C20.1,22.4,20.1,22.3,20.1,22.1z"/>
<path class="st0" d="M26.4,28.5c0-0.1,0-0.3,0-0.4c0.3-0.1,0.6,0,0.8,0c0,0.1,0,0.3,0,0.4C27,28.5,26.7,28.5,26.4,28.5z"/>
<path class="st0" d="M24.2,15.3c0-0.1,0-0.3,0-0.4c0.3,0,0.6,0,0.9,0c0.1,0.4-0.1,0.5-0.5,0.4C24.6,15.3,24.4,15.3,24.2,15.3z"/>
<path class="st0" d="M10.2,28.1c0.1-0.2,0-0.4,0.1-0.5c0-0.3,0.2-0.4,0.5-0.4c0,0.2,0.2,0.5-0.3,0.5c-0.1,0-0.1,0.1-0.1,0.2
	c0,0.2,0,0.4,0,0.6h-0.1C10.2,28.4,10.2,28.2,10.2,28.1z"/>
<path class="st0" d="M36.3,20c-0.2-0.2-0.1-0.4-0.1-0.6c0-0.1,0-0.2-0.1-0.2c-0.4,0-0.3-0.3-0.3-0.5c0.3,0,0.5,0.2,0.5,0.5
	c0,0.1,0,0.3,0,0.4C36.3,19.7,36.3,19.8,36.3,20z"/>
<path class="st0" d="M23,14.9c0,0.1,0,0.3,0,0.4c-0.3,0-0.6,0-0.8,0c0-0.3,0.1-0.4,0.4-0.4C22.7,14.9,22.9,14.9,23,14.9z"/>
<path class="st0" d="M28.6,13.6c0-0.1,0-0.3,0-0.4c0.3,0,0.6,0,0.9,0c0,0.1,0,0.3,0,0.4C29.1,13.6,28.9,13.6,28.6,13.6z"/>
<path class="st0" d="M17.1,20.4c-0.3,0-0.6,0-0.8,0c0-0.1,0-0.3,0-0.4c0.3,0,0.6,0,0.8,0C17.1,20.1,17.1,20.3,17.1,20.4z"/>
<path class="st0" d="M38.4,23.9c-0.2,0-0.1-0.2-0.1-0.3c0-0.1,0-0.2-0.1-0.2c-0.4,0-0.2-0.3-0.2-0.5c0.3,0,0.5,0.1,0.4,0.4
	C38.3,23.5,38.3,23.7,38.4,23.9z"/>
<path class="st0" d="M21.4,15.8c0,0.1,0,0.3,0,0.4c0,0.3-0.1,0.5-0.5,0.5c0-0.2-0.1-0.5,0.3-0.5C21.3,16.1,21.1,15.8,21.4,15.8
	C21.3,15.7,21.4,15.8,21.4,15.8z"/>
<path class="st0" d="M31.9,13.6c-0.3,0-0.5,0-0.8,0c0-0.1,0-0.3,0-0.4c0.1,0,0.3,0,0.4,0C31.8,13.2,31.9,13.3,31.9,13.6z"/>
<path class="st0" d="M21.8,20.9c-0.4,0.1-0.4-0.2-0.5-0.5c0-0.1,0-0.3,0-0.4c0.1,0.2,0.2,0.4,0.5,0.5C21.8,20.5,21.7,20.7,21.8,20.9
	z"/>
<path class="st0" d="M24.7,14c0-0.2,0-0.5,0.4-0.5c0.2,0,0-0.3,0.2-0.4c0,0.1,0,0.3,0,0.4C25.2,13.9,25.1,14.2,24.7,14z"/>
<path class="st0" d="M33.7,15.3c-0.1-0.2-0.2-0.5-0.5-0.5c0,0,0-0.2-0.1-0.4c0.4-0.1,0.5,0.2,0.6,0.5C33.7,15,33.7,15.2,33.7,15.3z"
	/>
<path class="st0" d="M11.2,20.9c0,0.1,0,0.3,0,0.4c0.1,0.4-0.1,0.5-0.4,0.4c0-0.2-0.1-0.4,0.2-0.5c0.1,0,0.1-0.2,0.1-0.4
	C11.1,20.9,11.1,20.9,11.2,20.9z"/>
<path class="st0" d="M15.5,20.4c-0.1,0.6,0,1.1,0,1.7c-0.1,0-0.1-0.1-0.1-0.1C15.3,21.4,15.3,20.9,15.5,20.4
	C15.4,20.4,15.4,20.4,15.5,20.4z"/>
<path class="st0" d="M13.2,22.5c0.1-0.2,0.1-0.3,0.1-0.5c0-0.3,0.1-0.4,0.4-0.4c0,0.2,0.1,0.4-0.2,0.4
	C13.2,22.2,13.5,22.5,13.2,22.5z"/>
<path class="st0" d="M26.4,6.4C26,6.5,26,6.2,25.9,6C26,6,26,6,26,6C26.4,5.9,26.5,6.1,26.4,6.4C26.5,6.4,26.4,6.4,26.4,6.4z"/>
<path class="st0" d="M19.7,25.5c0,0.4-0.2,0.5-0.6,0.4C19.2,25.5,19.4,25.4,19.7,25.5z"/>
<path class="st0" d="M29.3,28.9c0.4-0.1,0.6,0,0.6,0.4h-0.1C29.5,29.4,29.4,29.2,29.3,28.9z"/>
<path class="st0" d="M18.9,6.8c-0.1,0.3-0.1,0.5-0.5,0.5h-0.1C18.3,6.8,18.5,6.8,18.9,6.8z"/>
<path class="st0" d="M22.3,23.8c0,0.3-0.2,0.5-0.6,0.4C21.7,23.8,21.9,23.7,22.3,23.8z"/>
<path class="st0" d="M31.9,30.6c0.4-0.1,0.6,0,0.6,0.4C32.1,31.1,31.9,31,31.9,30.6z"/>
<path class="st0" d="M25.2,21.2c0.1,0.1,0.4-0.1,0.4,0.2c0,0.4-0.3,0.2-0.4,0.3c0,0,0,0-0.1,0C25.1,21.5,25.1,21.4,25.2,21.2z"/>
<path class="st0" d="M11.2,20.9h-0.1c-0.4,0.1-0.2-0.3-0.4-0.5C11.2,20.4,11.2,20.4,11.2,20.9z"/>
<path class="st0" d="M9.9,23.8c0.1,0.3,0,0.5-0.4,0.5C9.3,23.8,9.6,23.8,9.9,23.8z"/>
<path class="st0" d="M20.1,8.9c-0.1-0.4,0.2-0.5,0.5-0.4C20.5,8.8,20.5,9.1,20.1,8.9z"/>
<path class="st0" d="M18.4,26.4c0,0.3-0.1,0.5-0.5,0.4C17.9,26.4,18,26.3,18.4,26.4z"/>
<path class="st0" d="M17.1,27.2c0,0.3-0.1,0.5-0.5,0.4C16.6,27.3,16.8,27.1,17.1,27.2z"/>
<path class="st0" d="M26,14.4c0,0.5,0,0.5-0.4,0.5C25.5,14.6,25.7,14.4,26,14.4z"/>
<path class="st0" d="M21.3,8.1c0-0.4,0.1-0.5,0.5-0.4C21.8,8,21.7,8.2,21.3,8.1z"/>
<path class="st0" d="M10.3,29.8c-0.3-0.1-0.6-0.1-0.4-0.5C10.3,29.3,10.4,29.5,10.3,29.8z"/>
<path class="st0" d="M10.7,22.1c0.1,0.3,0,0.5-0.4,0.5C10.2,22.1,10.4,22.1,10.7,22.1z"/>
<path class="st0" d="M18.4,29.3c-0.1-0.4,0.2-0.5,0.5-0.4C18.8,29.1,18.8,29.5,18.4,29.3z"/>
<path class="st0" d="M10.4,12.8c0,0.3-0.1,0.5-0.5,0.4C9.8,12.9,9.9,12.7,10.4,12.8C10.3,12.8,10.3,12.8,10.4,12.8z"/>
<path class="st0" d="M15,12.3c-0.1-0.4,0.1-0.5,0.5-0.4C15.4,12.1,15.4,12.5,15,12.3z"/>
<path class="st0" d="M23.5,23c0,0.3-0.1,0.5-0.5,0.4C23,23,23.1,22.9,23.5,23z"/>
<path class="st0" d="M10.3,22.9c0.1,0.4,0,0.5-0.4,0.5C9.8,23.1,10,22.9,10.3,22.9z"/>
<path class="st0" d="M9.5,24.6c0.1,0.4,0,0.6-0.4,0.5C8.9,24.7,9.2,24.7,9.5,24.6z"/>
<path class="st0" d="M20.9,24.7c0,0.4-0.1,0.5-0.5,0.4C20.4,24.7,20.6,24.6,20.9,24.7z"/>
<path class="st0" d="M16.2,11.5c0-0.5,0.2-0.5,0.6-0.4l0,0c-0.1,0-0.1,0-0.1,0.1C16.7,11.6,16.4,11.5,16.2,11.5z"/>
<path class="st0" d="M21.4,15.8C21.4,15.8,21.3,15.7,21.4,15.8c-0.1-0.4,0-0.5,0.4-0.4C21.8,15.6,21.8,15.8,21.4,15.8z"/>
<path class="st0" d="M12.4,30.6c-0.1,0-0.3,0-0.4,0c-0.1-0.4,0.2-0.4,0.5-0.4C12.4,30.3,12.4,30.5,12.4,30.6z"/>
<path class="st0" d="M19.2,24.2c-0.1-0.3,0.1-0.5,0.4-0.4C19.7,24.3,19.7,24.3,19.2,24.2z"/>
<path class="st0" d="M37,20.9c-0.4,0-0.5-0.2-0.4-0.5C37,20.4,37.1,20.5,37,20.9z"/>
<path class="st0" d="M17.5,10.6c-0.1-0.4,0.1-0.5,0.5-0.4C17.9,10.4,17.9,10.8,17.5,10.6z"/>
<path class="st0" d="M27.3,28.5c0-0.1,0-0.3,0-0.4c0.1,0,0.3,0,0.4,0c0,0.1,0,0.3,0,0.4C27.6,28.5,27.4,28.5,27.3,28.5z"/>
<path class="st0" d="M30.6,29.8c0.4-0.1,0.5,0,0.5,0.4C30.8,30.3,30.6,30.1,30.6,29.8z"/>
<path class="st0" d="M20.1,6c0,0.3-0.1,0.5-0.5,0.4C19.6,6,19.7,5.9,20.1,6z"/>
<path class="st0" d="M7.3,17.8c0.4,0,0.5,0.1,0.4,0.5C7.4,18.3,7.3,18.2,7.3,17.8z"/>
<path class="st0" d="M11.6,18.3c-0.4,0.1-0.5-0.1-0.5-0.4C11.5,17.8,11.6,17.9,11.6,18.3z"/>
<path class="st0" d="M14.6,28.9c-0.1,0.2-0.1,0.6-0.5,0.4C14.1,28.9,14.3,28.8,14.6,28.9z"/>
<path class="st0" d="M18.8,9.8c0-0.4,0.2-0.5,0.6-0.4l0,0c-0.1,0-0.1,0-0.1,0.1C19.3,9.9,19,9.8,18.8,9.8z"/>
<path class="st0" d="M9.4,19.6c0.4-0.1,0.5,0,0.5,0.4C9.5,20.1,9.4,19.9,9.4,19.6z"/>
<path class="st0" d="M8.2,18.7c0.4-0.1,0.5,0.1,0.5,0.4C8.3,19.2,8.1,19.1,8.2,18.7z"/>
<path class="st0" d="M15.8,31c-0.1-0.4,0.1-0.5,0.5-0.4C16.2,30.8,16.3,31.2,15.8,31z"/>
<path class="st0" d="M13.3,32.7c-0.1-0.4,0.2-0.5,0.5-0.4C13.7,32.6,13.6,32.8,13.3,32.7z"/>
<path class="st0" d="M22.2,7.3c0.1,0,0.3,0,0.4,0c0,0.5-0.1,0.5-0.5,0.4C22.2,7.5,22.2,7.4,22.2,7.3z"/>
<path class="st0" d="M17.6,7.7c0,0.3-0.1,0.5-0.5,0.4C17,7.7,17.2,7.6,17.6,7.7z"/>
<path class="st0" d="M13.3,29.9c0,0.4-0.2,0.3-0.5,0.3c0-0.3,0.1-0.5,0.5-0.4C13.3,29.8,13.3,29.8,13.3,29.9z"/>
<path class="st0" d="M13.8,10.2c-0.1,0.2-0.1,0.6-0.5,0.4C13.2,10.3,13.4,10.1,13.8,10.2z"/>
<path class="st0" d="M25.6,12.8c-0.1-0.4,0-0.5,0.4-0.5C26.1,12.7,25.9,12.8,25.6,12.8z"/>
<path class="st0" d="M23.9,7.3c0.3-0.1,0.5,0,0.5,0.4v0.1C24,7.7,23.8,7.6,23.9,7.3z"/>
<path class="st0" d="M20.9,17.5c0,0.2,0,0.3,0,0.5c0,0,0,0-0.1,0c-0.3,0-0.5-0.1-0.4-0.5C20.6,17.4,20.8,17.5,20.9,17.5z"/>
<path class="st0" d="M26.5,13.6c-0.1,0.2-0.1,0.6-0.5,0.4c0-0.3,0-0.5,0.4-0.5C26.4,13.6,26.5,13.6,26.5,13.6z"/>
<path class="st0" d="M12,14.5c0-0.4,0.1-0.5,0.5-0.4C12.4,14.4,12.4,14.6,12,14.5z"/>
<path class="st0" d="M9.1,13.6c0,0.3-0.1,0.5-0.5,0.4C8.5,13.7,8.7,13.5,9.1,13.6z"/>
<path class="st0" d="M25.2,5.6c-0.3,0.1-0.6,0-0.5-0.4C25.1,5,25.2,5.3,25.2,5.6z"/>
<path class="st0" d="M10.2,28.5h0.1c0.1,0.3,0,0.5-0.4,0.5c0-0.2,0-0.3,0-0.5C10,28.5,10.1,28.5,10.2,28.5z"/>
<path class="st0" d="M12.5,11.1c0,0.3-0.1,0.5-0.5,0.5C11.9,11.1,12.1,11,12.5,11.1z"/>
<path class="st0" d="M15.8,28.1c0.1,0.4-0.1,0.5-0.5,0.4C15.4,28.2,15.4,27.9,15.8,28.1z"/>
<path class="st0" d="M20.5,28.1c0.2-0.1,0.3-0.1,0.5,0c0,0.1,0,0.3,0,0.4c-0.2,0-0.3,0-0.5,0C20.5,28.4,20.5,28.2,20.5,28.1z"/>
<path class="st0" d="M21.3,18.3c0.4-0.1,0.5,0.1,0.5,0.4C21.5,18.8,21.3,18.7,21.3,18.3z"/>
<path class="st0" d="M17.1,30.2c0-0.3,0.1-0.6,0.5-0.4C17.6,30.2,17.4,30.2,17.1,30.2z"/>
<path class="st0" d="M12.8,19.2c-0.4,0.1-0.4-0.2-0.4-0.4C12.8,18.6,12.9,18.8,12.8,19.2C12.9,19.1,12.9,19.2,12.8,19.2z"/>
<path class="st0" d="M15,9.4c0,0.3-0.1,0.5-0.5,0.4C14.5,9.4,14.7,9.3,15,9.4z"/>
<path class="st0" d="M29.8,29.4C29.8,29.3,29.9,29.3,29.8,29.4c0.4-0.1,0.5,0.1,0.5,0.4C29.9,29.9,29.8,29.7,29.8,29.4z"/>
<path class="st0" d="M33.2,31.5c0.4-0.1,0.5,0.1,0.5,0.4C33.3,32,33.2,31.8,33.2,31.5z"/>
<path class="st0" d="M13.3,10.7c0,0.4-0.1,0.5-0.5,0.4C12.8,10.7,13,10.6,13.3,10.7z"/>
<path class="st0" d="M19.6,9.4c0-0.4,0.2-0.5,0.5-0.4C20,9.4,20,9.4,19.6,9.4z"/>
<path class="st0" d="M34.5,32.3c0.4-0.2,0.4,0.2,0.5,0.4C34.7,32.8,34.5,32.7,34.5,32.3z"/>
<path class="st0" d="M17.1,20.4c0-0.1,0-0.3,0-0.4c0.1,0,0.3,0,0.4,0C17.5,20.5,17.5,20.5,17.1,20.4z"/>
<path class="st0" d="M14.1,29.3c0,0.4-0.2,0.5-0.5,0.4C13.7,29.5,13.7,29.2,14.1,29.3z"/>
<path class="st0" d="M17.1,8.1c0,0.4-0.2,0.4-0.5,0.4C16.7,8.3,16.7,8,17.1,8.1z"/>
<path class="st0" d="M20.9,17.5c-0.1,0-0.3,0-0.4,0c-0.1-0.3,0-0.5,0.4-0.4C20.9,17.2,20.9,17.3,20.9,17.5z"/>
<path class="st0" d="M19.6,18.8c-0.3,0-0.5-0.1-0.4-0.5C19.7,18.3,19.7,18.3,19.6,18.8z"/>
<path class="st0" d="M22.6,19.2c0.4-0.2,0.4,0.2,0.5,0.4C22.8,19.6,22.6,19.6,22.6,19.2z"/>
<path class="st0" d="M9.9,20c0.4-0.1,0.5,0.1,0.5,0.4C10,20.5,9.8,20.4,9.9,20z"/>
<path class="st0" d="M22.2,18.7c0.4-0.1,0.5,0.1,0.5,0.4c-0.1,0-0.3,0-0.4,0C22.2,19,22.2,18.9,22.2,18.7z"/>
<path class="st0" d="M26.9,10.3c0-0.3,0-0.5,0.4-0.5C27.4,10.2,27.2,10.3,26.9,10.3z"/>
<path class="st0" d="M20.1,20.4c-0.5,0-0.5,0-0.4-0.4c0.1,0,0.3,0,0.4,0C20.1,20.1,20.1,20.3,20.1,20.4z"/>
<path class="st0" d="M30.3,13.6c-0.2,0-0.3,0-0.5,0c0-0.1,0-0.3,0-0.4c0.2,0,0.3,0,0.5,0C30.3,13.3,30.3,13.5,30.3,13.6z"/>
<path class="st0" d="M20.9,20.4c-0.2,0-0.3,0-0.5,0c0-0.1,0-0.3,0-0.4c0.2,0,0.3,0,0.5,0C20.9,20.1,20.9,20.3,20.9,20.4z"/>
<path class="st0" d="M11.1,12c0.1,0.3-0.1,0.4-0.4,0.4C10.7,11.9,10.7,11.9,11.1,12z"/>
<path class="st0" d="M23.9,20c0.3-0.1,0.5,0,0.5,0.4C24,20.4,23.8,20.4,23.9,20z"/>
<path class="st0" d="M24.3,10.6c0.1,0.3-0.1,0.5-0.4,0.4C23.8,10.7,24,10.6,24.3,10.6z"/>
<path class="st0" d="M26.5,13.6h-0.1c0-0.4,0.2-0.4,0.5-0.4c0,0.1,0,0.3,0,0.4C26.8,13.6,26.6,13.6,26.5,13.6z"/>
<path class="st0" d="M34.9,16.6c-0.4,0.1-0.5-0.1-0.4-0.5C34.9,16.1,34.9,16.3,34.9,16.6z"/>
<path class="st0" d="M31.1,13.2c0,0.1,0,0.3,0,0.4c-0.2,0-0.3,0-0.5,0c0-0.1,0-0.3,0-0.4C30.8,13.2,31,13.2,31.1,13.2z"/>
<path class="st0" d="M17.1,11.1c-0.1-0.4,0.1-0.5,0.4-0.4C17.6,11,17.4,11.1,17.1,11.1z"/>
<path class="st0" d="M12.8,19.2C12.9,19.2,12.9,19.1,12.8,19.2c0.4-0.1,0.5,0.1,0.5,0.4C13,19.6,12.8,19.5,12.8,19.2z"/>
<path class="st0" d="M15.8,9c0,0.3-0.2,0.4-0.5,0.4C15.3,9,15.5,8.9,15.8,9z"/>
<path class="st0" d="M10.7,15.3c-0.1-0.4,0.2-0.4,0.5-0.4C11.2,15.2,11.1,15.4,10.7,15.3z"/>
<path class="st0" d="M12.4,30.6c0-0.1,0-0.3,0-0.4c0.1,0,0.3,0,0.4,0C12.9,30.5,12.8,30.7,12.4,30.6z"/>
<path class="st0" d="M17.9,29.8C17.9,29.8,17.9,29.7,17.9,29.8c0.2-0.1,0.1-0.3,0.1-0.4c0.1,0,0.3,0,0.4,0
	C18.4,29.7,18.2,29.9,17.9,29.8z"/>
<path class="st0" d="M25.1,21.7L25.1,21.7c0.1,0.4,0,0.5-0.4,0.4C24.7,21.8,24.7,21.6,25.1,21.7z"/>
<path class="st0" d="M17.9,24.3c0.2,0,0.3,0,0.5,0c0,0.1,0,0.3,0,0.4C18.1,24.7,17.9,24.7,17.9,24.3z"/>
<path class="st0" d="M26,6h-0.1c-0.4,0.1-0.4-0.2-0.4-0.4C25.8,5.5,26.1,5.6,26,6z"/>
<path class="st0" d="M18.8,24.3c0.2,0,0.3,0,0.5,0c0.1,0.4-0.2,0.4-0.5,0.4C18.8,24.5,18.8,24.4,18.8,24.3z"/>
<path class="st0" d="M21.4,5.1c0,0.3,0,0.5-0.4,0.4C20.9,5.2,21,5,21.4,5.1z"/>
<path class="st0" d="M14.5,12.8c-0.1-0.4,0.1-0.5,0.5-0.4C15,12.7,14.8,12.8,14.5,12.8z"/>
<path class="st0" d="M20.1,22.1c0,0.1,0,0.3,0,0.4c-0.1,0-0.3,0-0.4,0C19.6,22.2,19.7,22,20.1,22.1z"/>
<path class="st0" d="M10.4,12.8C10.3,12.8,10.3,12.8,10.4,12.8c-0.2-0.4,0.1-0.4,0.4-0.4C10.8,12.6,10.7,12.8,10.4,12.8z"/>
<path class="st0" d="M24.7,22.1c0,0.3-0.1,0.5-0.4,0.4C24.2,22.2,24.4,22,24.7,22.1z"/>
<path class="st0" d="M15.5,20.4C15.4,20.4,15.4,20.4,15.5,20.4c-0.2-0.4,0-0.4,0.3-0.4c0,0.1,0,0.3,0,0.4
	C15.7,20.4,15.6,20.4,15.5,20.4z"/>
<path class="st0" d="M26,12.3c0-0.1,0-0.3,0-0.4c0.1,0,0.3,0,0.4,0C26.4,12.2,26.4,12.4,26,12.3z"/>
<path class="st0" d="M24.3,7.7L24.3,7.7c0.3-0.1,0.5,0,0.4,0.4C24.4,8.1,24.3,8.1,24.3,7.7z"/>
<path class="st0" d="M27.7,28.5c0-0.1,0-0.3,0-0.4c0.4-0.1,0.5,0.1,0.4,0.4C28,28.5,27.9,28.5,27.7,28.5z"/>
<path class="st0" d="M26.4,6.4C26.4,6.4,26.5,6.4,26.4,6.4c0.4-0.1,0.5,0.1,0.4,0.4C26.5,6.9,26.4,6.7,26.4,6.4z"/>
<path class="st0" d="M20.9,28.5c0-0.1,0-0.3,0-0.4c0.1,0,0.2,0,0.4,0c0,0.1,0,0.3,0,0.4C21.2,28.5,21,28.5,20.9,28.5z"/>
<path class="st0" d="M18.3,7.2C18.3,7.3,18.4,7.3,18.3,7.2c0.1,0.3-0.1,0.4-0.4,0.4C17.9,7.4,18,7.2,18.3,7.2z"/>
<path class="st0" d="M16.2,22.1L16.2,22.1c-0.1,0.2,0,0.3,0,0.4c-0.4,0.1-0.4-0.1-0.4-0.4C15.9,22.1,16.1,22.1,16.2,22.1z"/>
<path class="st0" d="M20.5,20c0,0.1,0,0.3,0,0.4c-0.1,0-0.3,0-0.4,0c0-0.1,0-0.3,0-0.4C20.2,20,20.3,20,20.5,20z"/>
<path class="st0" d="M22.2,7.3c0,0.1,0,0.3,0,0.4c-0.1,0-0.3,0-0.4,0C21.7,7.3,21.9,7.2,22.2,7.3z"/>
<path class="st0" d="M34.5,16.2c-0.3,0-0.4-0.1-0.3-0.4C34.5,15.7,34.6,15.8,34.5,16.2z"/>
<path class="st0" d="M26.5,11c0-0.3,0-0.4,0.3-0.4C26.9,11,26.8,11.1,26.5,11z"/>
<path class="st0" d="M33.7,15.3c0-0.1,0-0.3,0-0.4c0.3,0,0.5,0,0.3,0.4C33.9,15.3,33.8,15.3,33.7,15.3z"/>
<path class="st0" d="M18.8,24.3c0,0.1,0,0.3,0,0.4c-0.1,0-0.3,0-0.4,0c0-0.1,0-0.3,0-0.4C18.5,24.3,18.6,24.3,18.8,24.3z"/>
<path class="st0" d="M27.2,7.7c-0.4,0.1-0.5-0.1-0.4-0.4C27.2,7.2,27.3,7.3,27.2,7.7z"/>
<path class="st0" d="M12,11.5c0.1,0.3-0.1,0.5-0.4,0.4C11.5,11.6,11.7,11.4,12,11.5z"/>
<path class="st0" d="M26.4,11.9c-0.1,0-0.3,0-0.4,0c-0.1-0.3,0.1-0.4,0.4-0.4C26.4,11.6,26.4,11.8,26.4,11.9z"/>
<path class="st0" d="M28.6,28.5c0.3-0.1,0.5,0,0.4,0.4C28.7,28.9,28.5,28.8,28.6,28.5z"/>
<path class="st0" d="M30.7,13.2c0,0.1,0,0.3,0,0.4c-0.1,0-0.3,0-0.4,0c0-0.1,0-0.3,0-0.4C30.4,13.2,30.5,13.2,30.7,13.2z"/>
<path class="st0" d="M19.2,28.9c-0.1-0.4,0.1-0.4,0.4-0.4C19.7,28.8,19.5,28.9,19.2,28.9z"/>
<path class="st0" d="M18.4,10.2c-0.1-0.4,0.1-0.4,0.4-0.4C18.8,10.1,18.7,10.3,18.4,10.2z"/>
<path class="st0" d="M14.5,9.8c0,0.3-0.1,0.5-0.4,0.4C14.1,9.8,14.2,9.7,14.5,9.8z"/>
<path class="st0" d="M29.8,13.2c0,0.1,0,0.3,0,0.4c-0.1,0-0.3,0-0.4,0c0-0.1,0-0.3,0-0.4C29.6,13.2,29.7,13.2,29.8,13.2z"/>
<path class="st0" d="M26.9,13.6c0-0.1,0-0.3,0-0.4c0.1,0,0.3,0,0.4,0c0,0.1,0,0.3,0,0.4C27.1,13.6,27,13.6,26.9,13.6z"/>
<path class="st0" d="M20.5,28.1c0,0.1,0,0.2,0,0.4c-0.1,0-0.3,0-0.4,0C20,28.2,20.2,28,20.5,28.1z"/>
<path class="st0" d="M13.3,13.6c-0.1-0.3,0.1-0.5,0.4-0.4C13.7,13.5,13.6,13.6,13.3,13.6z"/>
<path class="st0" d="M15.8,20.4c0-0.1,0-0.3,0-0.4c0.1,0,0.3,0,0.4,0c0,0.1,0,0.3,0,0.4C16.1,20.4,16,20.4,15.8,20.4z"/>
<path class="st0" d="M11.1,30.6c-0.4,0.1-0.4-0.1-0.4-0.4C11,30.1,11.2,30.3,11.1,30.6z"/>
<path class="st0" d="M20.9,8.5c-0.1-0.4,0.1-0.4,0.4-0.4C21.4,8.4,21.2,8.6,20.9,8.5z"/>
<path class="st0" d="M16.7,30.6c-0.1-0.4,0.1-0.4,0.4-0.4C17.1,30.5,17,30.6,16.7,30.6z"/>
<path class="st0" d="M36.3,20c0-0.1,0-0.3,0-0.4c0.4-0.1,0.4,0.2,0.3,0.5C36.5,20,36.4,20,36.3,20z"/>
<path class="st0" d="M14.1,32.3c-0.1-0.3,0.1-0.4,0.4-0.4C14.6,32.2,14.4,32.3,14.1,32.3z"/>
<path class="st0" d="M39.2,25.5c-0.2-0.2,0-0.6-0.1-0.8c0.2,0,0.1,0.2,0.1,0.3C39.2,25.2,39.2,25.3,39.2,25.5z"/>
<path class="st0" d="M40,27.2c-0.2-0.2,0-0.6-0.1-0.8c0.2,0.1,0.1,0.2,0.1,0.4C40.1,26.9,40,27,40,27.2z"/>
<path class="st0" d="M11,26.8c0.1-0.3-0.1-0.6,0.2-0.8c0,0.2,0,0.5,0,0.7C11.2,26.7,11.2,26.8,11,26.8z"/>
<path class="st0" d="M20.9,20.4c0-0.1,0-0.3,0-0.4c0.1,0,0.2,0,0.3,0c0,0.1,0,0.3,0,0.4C21.1,20.4,21,20.4,20.9,20.4z"/>
<path class="st0" d="M24.6,10.2c-0.1,0-0.2,0-0.3,0c-0.1-0.3-0.1-0.5,0.3-0.4C24.6,9.9,24.6,10.1,24.6,10.2z"/>
<path class="st0" d="M25.3,13.6c0-0.1,0-0.3,0-0.4c0.1,0,0.2,0,0.3,0C25.6,13.4,25.6,13.6,25.3,13.6z"/>
<path class="st0" d="M23.8,22.9c-0.1,0-0.2,0-0.3,0c0-0.2,0-0.5,0.3-0.4C23.8,22.7,23.8,22.8,23.8,22.9z"/>
<path class="st0" d="M33.2,14.5c-0.1,0-0.2,0-0.3,0c0-0.1,0-0.2,0-0.4C33.2,14,33.2,14.2,33.2,14.5z"/>
<path class="st0" d="M21.4,24.3c-0.1,0.1,0.2,0.4-0.2,0.4C21.4,24.6,21.2,24.3,21.4,24.3z"/>
<path class="st0" d="M32.7,31c0.2,0.1,0.1,0.3,0.2,0.4C32.6,31.4,32.9,31.2,32.7,31z"/>
<path class="st0" d="M39.5,31.9c0.1-0.1-0.1-0.4,0.2-0.4C39.6,31.6,39.8,31.8,39.5,31.9z"/>
<path class="st0" d="M34,31.9c0.2,0.1,0,0.3,0.1,0.4C33.8,32.3,34,32,34,31.9z"/>
<path class="st0" d="M14.1,13.2c0.2-0.1-0.1-0.4,0.2-0.4C14.2,12.9,14.3,13.1,14.1,13.2z"/>
<path class="st0" d="M11.5,14.9c0.2-0.1-0.1-0.4,0.2-0.4C11.6,14.6,11.8,14.8,11.5,14.9z"/>
<path class="st0" d="M20.5,5.6c-0.1,0.1,0.1,0.3-0.1,0.4C20.4,5.8,20.3,5.6,20.5,5.6z"/>
<path class="st0" d="M24.6,10.2c0-0.1,0-0.3,0-0.4c0,0,0,0,0.1,0C24.8,10,24.9,10.1,24.6,10.2z"/>
<path class="st0" d="M20.9,17.9L20.9,17.9C21,18,21,18.2,21,18.3C20.7,18.3,20.9,18,20.9,17.9z"/>
<path class="st0" d="M31.4,30.2c0.3,0,0.1,0.3,0.1,0.4C31.4,30.5,31.5,30.3,31.4,30.2z"/>
<path class="st0" d="M10.8,17.8c-0.2-0.1,0-0.3-0.1-0.4C10.9,17.5,10.8,17.7,10.8,17.8z"/>
<path class="st0" d="M16.3,27.6c-0.1,0.1,0.1,0.3-0.1,0.4C16.2,27.9,16,27.7,16.3,27.6z"/>
<path class="st0" d="M9.9,16.2c0.1-0.1-0.1-0.3,0.1-0.4C9.9,15.9,10,16.1,9.9,16.2z"/>
<path class="st0" d="M32.9,14.1c0,0.1,0,0.2,0,0.4C32.7,14.4,32.8,14.2,32.9,14.1C32.8,14.1,32.8,14.1,32.9,14.1z"/>
<path class="st0" d="M24.6,20.4c0.2,0.1,0,0.3,0.1,0.4C24.5,20.8,24.7,20.6,24.6,20.4z"/>
<path class="st0" d="M23.8,22.9c0-0.1,0-0.3,0-0.4h0.1C23.8,22.7,24,22.9,23.8,22.9z"/>
<path class="st0" d="M9.5,13.2c-0.1,0.1,0.1,0.3-0.1,0.4C9.4,13.5,9.3,13.3,9.5,13.2z"/>
<path class="st0" d="M18.8,25.9c-0.1,0.1,0.1,0.3-0.1,0.4C18.8,26.2,18.6,26,18.8,25.9z"/>
<path class="st0" d="M22.2,18.7c0,0.1,0.1,0.3,0.1,0.4C22,19.1,22.1,18.9,22.2,18.7C22.1,18.7,22.1,18.7,22.2,18.7z"/>
<path class="st0" d="M16.2,22.5c-0.1-0.1-0.1-0.2,0-0.4C16.4,22.3,16.3,22.4,16.2,22.5C16.3,22.5,16.3,22.5,16.2,22.5z"/>
<path class="st0" d="M13.3,29.9v-0.1C13.3,29.8,13.3,29.8,13.3,29.9C13.3,29.8,13.3,29.8,13.3,29.9z"/>
<path class="st0" d="M19.2,9.5c0-0.1,0-0.1,0.1-0.1C19.3,9.4,19.2,9.5,19.2,9.5z"/>
<path class="st0" d="M16.7,11.2C16.7,11.1,16.7,11.1,16.7,11.2C16.7,11.1,16.7,11.2,16.7,11.2z"/>
<path class="st0" d="M31.4,21.7c0.1,0,0.1,0.1,0.1,0.2s0,0.2,0.2,0.2c0.3,0,0.3,0.2,0.3,0.4c-0.4,0.1-0.6-0.1-0.6-0.4
	C31.4,22,31.4,21.8,31.4,21.7z"/>
<path class="st0" d="M27.8,23.4c0,0.2,0,0.4,0,0.5s0,0.3,0.2,0.3c0.2,0.1,0.1,0.3,0.1,0.4c-0.4,0-0.5-0.1-0.4-0.5
	C27.7,23.9,27.6,23.7,27.8,23.4z"/>
<path class="st0" d="M29.8,18.3c-0.3,0.1-0.4-0.1-0.4-0.4C29.9,17.8,29.9,17.8,29.8,18.3z"/>
<path class="st0" d="M29.7,24.6c0-0.4,0-0.8,0-1.2c0.1,0,0.1,0,0.1,0.1C29.8,23.9,30,24.3,29.7,24.6z"/>
<path class="st0" d="M28.1,17.9c0,0.3-0.1,0.5-0.4,0.4C27.7,18,27.7,17.8,28.1,17.9z"/>
<path class="st0" d="M29.4,17.8c-0.2,0-0.3,0-0.5,0c0-0.1,0-0.3,0-0.4C29.2,17.4,29.5,17.4,29.4,17.8z"/>
<path class="st0" d="M32.3,22.5c-0.1-0.4,0.2-0.4,0.4-0.4C32.9,22.6,32.7,22.6,32.3,22.5z"/>
<path class="st0" d="M29,17.5c0,0.1,0,0.3,0,0.4c-0.1,0-0.3,0-0.4,0C28.5,17.5,28.7,17.4,29,17.5z"/>
<path class="st0" d="M29.4,19.5c-0.1-0.3,0.1-0.4,0.4-0.4C29.9,19.5,29.8,19.6,29.4,19.5z"/>
<path class="st0" d="M31.4,21.7c0,0.1,0,0.3,0,0.4c-0.4,0.1-0.3-0.2-0.3-0.4C31.2,21.7,31.3,21.7,31.4,21.7z"/>
<path class="st0" d="M10.2,28.5c-0.1,0-0.2,0-0.3,0c0-0.2,0-0.4,0.3-0.4C10.2,28.2,10.2,28.4,10.2,28.5z"/>
<path class="st0" d="M18,29.3c-0.1,0.1,0,0.3-0.1,0.4C17.9,29.6,17.8,29.4,18,29.3z"/>
<path class="st0" d="M18.7,20.9c0.1,0.1,0.2,0.8,0.1,0.8c-0.2,0.1-0.6,0.1-0.7,0C17.9,21.6,18,21.3,18,21c0-0.2,0.3-0.1,0.4-0.1V21
	c0,0.1,0,0.4,0.2,0.3C18.8,21.3,18.7,21.1,18.7,20.9L18.7,20.9z"/>
<path class="st0" d="M18.7,20.9V21c0,0.1,0.1,0.3-0.1,0.3s-0.2-0.2-0.2-0.3v-0.1C18.5,20.9,18.6,20.9,18.7,20.9z"/>
<g>
	<path class="st1" d="M52.4,29.6V10.5h4v15.6h9.5v3.5H52.4z"/>
	<path class="st1" d="M75.6,29.6v-2c-1,1.6-2.4,2.4-4.4,2.4c-2.8,0-4.8-2.1-4.8-5.2v-9.3h3.7v8.7c0,1.8,0.8,2.6,2.4,2.6
		c1.9,0,2.9-1.4,2.9-3.2v-8.2h3.7v14.2H75.6z"/>
	<path class="st1" d="M89.5,29.6L87,25.4l-2.4,4.3h-4.5l4.7-7.2l-4.6-6.9h4.5l2.4,4.1l2.4-4.1h4.3l-4.7,6.9l4.8,7.2H89.5z"/>
	<path class="st1" d="M96.4,23.5c0.1,2.1,1.3,3.5,3.2,3.5c1.2,0,2.3-0.6,2.5-1.6h3.9c-0.9,2.9-3.2,4.5-6.2,4.5
		c-4.7,0-7.1-2.6-7.1-7.7c0-4.4,2.5-7.2,6.8-7.2c4.3,0,6.6,2.8,6.6,8.4H96.4z M102.2,21.2c-0.1-2.1-1.4-3.1-2.9-3.1
		c-1.5,0-2.7,1.2-2.9,3.1H102.2z"/>
	<path class="st1" d="M126.1,29.6l-8.2-12.8v12.8h-3.7V10.5h4.2l7.6,12.3V10.5h3.7v19.1H126.1z"/>
	<path class="st1" d="M131.2,29.6V10.5h14v3.3h-10.2V18h9.3v3.4h-9.3v4.9h10.6v3.4H131.2z"/>
	<path class="st1" d="M161.1,29.6l-3-12.4l-3,12.4h-3.7L146,10.5h4.3l3.1,12.4l2.6-12.4h4.2l2.9,12.4l3.1-12.4h4.1l-5.4,19.1H161.1z
		"/>
	<path class="st1" d="M181,16.2c-0.2-2-1.4-2.9-3.8-2.9c-2.2,0-3.4,0.8-3.4,2.2c0,1.2,0.8,1.9,3,2.4c2.2,0.5,4.3,1,5.7,1.7
		c1.7,0.7,3,1.9,3,4.6c0,4.2-3.2,6.1-7.6,6.1c-4.7,0-8-2.1-8.1-6.4h3.9c0.1,2,1.7,3.2,4.3,3.2c2.4,0,3.7-1,3.7-2.7
		c0-1.1-0.6-1.9-3-2.4c-2.4-0.5-3.9-0.9-5.2-1.5c-2-0.9-3.2-2.3-3.2-4.7c0-3.4,2.3-5.9,7-5.9c4.8,0,7.5,2.6,7.7,6.3H181z"/>
</g>
</svg>
